<?xml version="1.0" encoding="utf-8"?>
<!-- Generator: Adobe Illustrator 25.0.1, SVG Export Plug-In . SVG Version: 6.00 Build 0)  -->
<svg version="1.0" id="katman_1" xmlns="http://www.w3.org/2000/svg" xmlns:xlink="http://www.w3.org/1999/xlink" x="0px" y="0px"
	 viewBox="0 0 2780.4 1898.7" style="enable-background:new 0 0 2780.4 1898.7;" xml:space="preserve">
<style type="text/css">
	.st0{enable-background:new    ;}
	.st1{fill:url(#SVGID_1_);}
	.st2{fill:url(#SVGID_2_);}
	.st3{fill:url(#SVGID_3_);}
	.st4{fill:url(#SVGID_4_);}
	.st5{fill:url(#SVGID_5_);}
	.st6{fill:url(#SVGID_6_);}
	.st7{fill:url(#SVGID_7_);}
	.st8{fill:#D32128;}
	.st9{fill:#66C2E3;}
	.st10{fill-rule:evenodd;clip-rule:evenodd;}
	.st11{fill-rule:evenodd;clip-rule:evenodd;fill:#66C2E3;}
	.st12{fill-rule:evenodd;clip-rule:evenodd;fill:#FEEB50;stroke:#1F1917;stroke-width:0.8587;stroke-miterlimit:39.7555;}
	.st13{fill-rule:evenodd;clip-rule:evenodd;fill:#FDF7BA;}
	.st14{fill-rule:evenodd;clip-rule:evenodd;fill:#EDD749;}
</style>
<g transform="matrix(1.0038 0 0 1.0038 -9.0439 -54.943)">
	<g transform="matrix(-1.6786 .69378 .69378 1.6786 2246.3 -94.633)" class="st0">
		<g transform="rotate(-.026502 389790 7704.3)">
			
				<linearGradient id="SVGID_1_" gradientUnits="userSpaceOnUse" x1="6293.8315" y1="-2670.7659" x2="8532.1309" y2="-2670.7659" gradientTransform="matrix(0.3946 7.580243e-02 -7.580243e-02 0.3946 -1688.9254 798.0886)">
				<stop  offset="0" style="stop-color:#282662"/>
				<stop  offset="9.548400e-02" style="stop-color:#68308F"/>
				<stop  offset="0.7882" style="stop-color:#A22367"/>
				<stop  offset="0.9487" style="stop-color:#CD2032"/>
			</linearGradient>
			<path class="st1" d="M705.8,313.4c20.3-9.6,39.7-20.1,58.1-31.9c0.6-0.4,1.3-0.8,1.9-1.2c-7.5,19.1-3.8,52.6-3.8,52.4
				c11.8-34.7,26.5-65.3,48.7-84.7c8.5,7.6,14.9,21.8,20.2,39.9c2.6-24.8-1.9-38.7-4.1-43.8c10.9,12.9,30.7,20.2,52,26.5
				c-23.9-14.5-39.8-28.9-46-43c68.3-21,142.3-46.2,220-74c-6.1-4.6-12.6-5.2-19.4-3.2c-14,5.1-106.2,38.3-231.6,76.2
				c-3.6,1.1-7.2,2.2-10.8,3.2c-1,0.3-2,0.6-3,0.9c-13.2,4-26.7,7.9-40.5,11.9c-3.1,0.9-6.3,1.8-9.4,2.7c-0.1,0-0.1,0-0.2,0.1
				l-36.6,69.9C702.2,315.2,705.1,313.8,705.8,313.4L705.8,313.4z"/>
			
				<linearGradient id="SVGID_2_" gradientUnits="userSpaceOnUse" x1="4320.5552" y1="-1891.9296" x2="4917.5552" y2="-2589.9795" gradientTransform="matrix(0.3946 7.580243e-02 -7.580243e-02 0.3946 -1688.9254 798.0886)">
				<stop  offset="0" style="stop-color:#F69923"/>
				<stop  offset="0.3123" style="stop-color:#F79A23"/>
				<stop  offset="0.8383" style="stop-color:#E97826"/>
			</linearGradient>
			<path class="st2" d="M72.2,387.3c19.1,7.2,39.6,9.1,59.7,11.3c11.9,1.1,24.2,1.9,36.1,2.5c8.4-17.3,16.4-33.8,24.5-51.3
				c-31.5,0.9-63.6,0.2-94.9-3.5c30.9,3.1,62.7,1.8,93.6,0.1c-21.7-26.2-46.4-51.9-71.9-75.8c-23.5,11.8-46.8,28.6-59.2,52.5
				c-6.3,14.5-10,31.5-4.8,47C58.2,378,64.5,384.2,72.2,387.3L72.2,387.3z"/>
			
				<linearGradient id="SVGID_3_" gradientUnits="userSpaceOnUse" x1="6576.3311" y1="-2776.7158" x2="10835.4307" y2="-2776.7158" gradientTransform="matrix(0.3946 7.580243e-02 -7.580243e-02 0.3946 -1688.9254 798.0886)">
				<stop  offset="0.3233" style="stop-color:#9E2064"/>
				<stop  offset="0.6302" style="stop-color:#C92037"/>
				<stop  offset="0.7514" style="stop-color:#D12C3E"/>
				<stop  offset="1" style="stop-color:#E97826"/>
			</linearGradient>
			<path class="st3" d="M343.1,335.5c-17,2.5-33.7,4.7-50.2,6.6c-17.1,2-34,3.6-50.4,4.9c-1,0.1-1.9,0.2-2.9,0.2
				c-16.2,1.2-32.1,2-47.5,2.5l-24.5,51.3c3.2,0.2,6.4,0.3,9.6,0.4c12.3,0.5,25.3,0.7,38.9,0.8c15.4,0.1,31.6-0.1,48.4-0.6
				c15.5-0.5,31.6-1.2,48.1-2.1c14-0.8,28.3-1.8,42.8-3.1c0.5,0,1.1-0.1,1.6-0.1c13.3-22.2,22.9-45.7,34.3-68.6
				C375.1,330.6,359.1,333.2,343.1,335.5L343.1,335.5z"/>
			
				<linearGradient id="SVGID_4_" gradientUnits="userSpaceOnUse" x1="6463.3804" y1="-2706.5012" x2="10722.4795" y2="-2706.5012" gradientTransform="matrix(0.3946 7.580243e-02 -7.580243e-02 0.3946 -1688.9254 798.0886)">
				<stop  offset="0.3233" style="stop-color:#9E2064"/>
				<stop  offset="0.6302" style="stop-color:#C92037"/>
				<stop  offset="0.7514" style="stop-color:#D12339"/>
				<stop  offset="1" style="stop-color:#E97826"/>
			</linearGradient>
			<path class="st4" d="M688.7,259.5c-16.2,4.5-32.6,8.9-49.2,13.2c-15.9,4.2-32,8.3-48.3,12.3c-16.3,4-32.6,8-49.1,11.8
				c-16.7,3.9-33.6,7.7-50.4,11.3c-16.6,3.6-33.3,7-49.9,10.3c-6,1.2-12,2.3-17.9,3.4c-10.3,1.9-20.6,3.8-30.8,5.6
				c-0.6,0.1-1.1,0.2-1.7,0.3L357,396.4c1.1-0.1,2.2-0.2,3.2-0.3c15.4-1.4,31-2.9,46.8-4.8c15.9-1.9,32-4,48.1-6.4
				c13.6-2,27.2-4.3,40.7-6.7c2.8-0.5,5.5-1,8.2-1.5c17-3.2,33.1-6.6,48.4-10.3c17.3-4.1,33.5-8.5,48.6-13c9.9-3,19.4-6,28.4-9
				c7.6-2.6,15.2-5.4,22.7-8.2c17.7-6.6,34.8-13.8,51.5-21.6c11.6-22.6,23.7-45.6,34.5-68.9c-12.6,3.6-25.5,7.3-38.5,10.9
				C696,257.5,692.3,258.5,688.7,259.5L688.7,259.5z"/>
			
				<linearGradient id="SVGID_5_" gradientUnits="userSpaceOnUse" x1="6371.1045" y1="-2930.0554" x2="10630.2041" y2="-2930.0554" gradientTransform="matrix(0.3946 7.580243e-02 -7.580243e-02 0.3946 -1688.9254 798.0886)">
				<stop  offset="0.3233" style="stop-color:#9E2064"/>
				<stop  offset="0.6302" style="stop-color:#CB2239"/>
				<stop  offset="0.7514" style="stop-color:#CE2436"/>
				<stop  offset="1" style="stop-color:#E97826"/>
			</linearGradient>
			<path class="st5" d="M392.8,320c2.2-0.4,4.5-0.8,6.7-1.3c6.8-1.3,13.6-2.6,20.7-4c7.6-1.5,15.3-3,23.2-4.7c4-0.8,8-1.7,12-2.5
				c12.1-2.5,24.6-5.3,37.4-8.1c15.8-3.5,32.1-7.3,48.9-11.4c16-3.9,32.6-8,49.6-12.3c16.1-4.1,32.7-8.5,49.8-13.1
				c15.2-4.1,30.7-8.4,46.6-12.9c0.8-0.2,1.5-0.4,2.3-0.7c15.8-4.5,32-9.2,48.5-14.1c0.4-0.1,0.8-0.2,1.1-0.3l-19.1-20.7
				c0.2,0.5,0.5,1,0.8,1.5c-23.3-24.4-69.9-45.3-111.9-50c-19.3-2.2-40-1.8-62.4,0.9c-16.7,2.1-34.4,5.5-53.2,10.2
				c-16.5,4.1-33.8,9.3-52.2,15.4c7.8,3.8,15.5,9.1,22.9,15.6c1.3,1.2,2.6,2.3,3.9,3.6c1.3,1.2,2.6,2.5,3.9,3.8c0,0,0,0-0.1,0
				c-28.2-17.9-58.6-19.9-90-14.5c9.4,3.3,23.2,9.6,35.6,20.4c1.7,1.5,3.3,3,4.9,4.6c0.4,0.4,0.8,0.8,1.2,1.2c0,0,0,0,0,0
				c0,0,0,0,0,0c-10.1-6-19.6-10.3-29.2-13.1c-2-0.6-4.1-1.1-6.1-1.6c-3.1-0.7-6.3-1.2-9.4-1.6c-2-0.3-4.1-0.4-6.1-0.6
				c-4.8-0.3-9.8-0.3-14.9,0.1c-1.6,0.1-3.1,0.3-4.7,0.4c-2.2,0.4-4.4,0.7-6.5,1.1c-9.6,1.7-18,3.6-25.2,5.4
				c-3.6,0.9-6.9,1.8-9.8,2.8c-1.2,0.4-2.3,0.7-3.5,1.1c-3.3,1.1-6.2,2.1-8.7,3.1c-3.7,1.4-6.6,2.8-8.6,3.8c1.3,0.4,2.7,0.8,4.2,1.4
				c10.1,4.2,24,14.3,33.7,23.4c0,0,2.2,2.3,3.1,3.2c0.2,0.2,58.2,65.1,58.2,65.1C390.6,320.9,392.4,320.1,392.8,320L392.8,320z"/>
			
				<linearGradient id="SVGID_6_" gradientUnits="userSpaceOnUse" x1="6509.6133" y1="-2974.29" x2="10768.7129" y2="-2974.29" gradientTransform="matrix(0.3946 7.580243e-02 -7.580243e-02 0.3946 -1688.9254 798.0886)">
				<stop  offset="0.3233" style="stop-color:#9E2064"/>
				<stop  offset="0.6302" style="stop-color:#C92037"/>
				<stop  offset="0.7514" style="stop-color:#CF2739"/>
				<stop  offset="1" style="stop-color:#E97826"/>
			</linearGradient>
			<path class="st6" d="M190.9,346.4c14.3-0.9,30.4-2.1,48.2-3.9c0.9-0.1,1.9-0.2,2.8-0.3c15.5-1.6,32.3-3.6,50.5-6
				c15.7-2.1,32.4-4.6,50.2-7.5c15.5-2.5,31.9-5.3,49-8.5l-59.5-64.6c-24.7-13.6-40.8-16.8-59.8-16.5c-5.2,0.2-10.5,0.4-16,0.8
				c-16.7,1.1-34.5,3.3-51.6,6.1c-16.5,2.7-32.4,6.1-46.2,9.9c-8.8,2.4-16.7,5-23.3,7.6c-5.9,2.3-11.3,4.8-16.3,7.3
				C144,294.9,173.5,325.3,190.9,346.4L190.9,346.4z"/>
			
				<linearGradient id="SVGID_7_" gradientUnits="userSpaceOnUse" x1="6226.2778" y1="-2885.7461" x2="8764.2783" y2="-2885.7461" gradientTransform="matrix(0.3946 7.580243e-02 -7.580243e-02 0.3946 -1688.9254 798.0886)">
				<stop  offset="0" style="stop-color:#282662"/>
				<stop  offset="9.548400e-02" style="stop-color:#662E8D"/>
				<stop  offset="0.7882" style="stop-color:#A22367"/>
				<stop  offset="0.9487" style="stop-color:#CD2032"/>
			</linearGradient>
			<path class="st7" d="M746.8,232.6c12.9-3.8,25.9-7.8,39.2-11.9c0.2-0.1,0.4-0.1,0.6-0.2c1.9-0.6,3.7-1.2,5.6-1.7
				c8.9-2.8,17-5.3,35.2-11.1c-2.3-11,2.6-24.8,9.2-39.4c-11.1,9.2-18.4,22.1-20.1,37.4c-28.1-41.8-64.2-69-107.1-65.1
				c-3.8,0.3-7.7,0.9-11.6,1.8c16.4,0.5,28.4,7.4,41.4,27.3c0,0,0.1,0.1,0.1,0.1c0,0-0.1-0.1-0.1-0.1c-33.4-18.8-56-23.9-85.2-21.6
				c-6.9,0.6-14.2,1.5-22.2,2.9c43.5,5.9,71.8,29,88.6,63.1l0.8,1.5l18.4,19.2C742,234.1,744.4,233.4,746.8,232.6L746.8,232.6z"/>
		</g>
	</g>
	<g transform="matrix(.49801 0 0 .49801 668.92 138.69)">
		<g>
			<path class="st8" d="M1093.3,1197.7c30.7-21.6,71.1-27.7,107.3-18.6c30.7,7.4,57.7,28.9,71.2,57.5c-7.4,4.5-14.8,9-22.2,13.5
				c-6.6-13.8-16.8-26.1-29.6-34.6c-17.4-11.6-38.8-16.3-59.5-15.2c-21.4,0.9-42.4,9.1-58.5,23.2c-23.8,20.7-37.2,51.6-39.8,82.6
				c-3.1,35.1,8.8,71.5,33,97.2c11.6,12.4,26.2,22.3,42.4,27.7c34.9,11.8,76.2,1.4,101.5-25.4c6.2-6.5,11.3-14.1,15.3-22.1
				c7.7,4,15.4,7.9,23.1,11.9c-7,15.9-18.7,29.5-32.7,39.7c-32.9,23.8-77.3,32.7-116.2,19.8c-28.8-9.6-53-30.2-69.3-55.5
				c-20.4-31.4-29.6-70.4-23.3-107.5C1041.9,1254.6,1062.2,1219.3,1093.3,1197.7z"/>
			<path class="st8" d="M590.9,1458.4c0-93.9,0-187.9,0-281.8c39.2,0,78.4,0,117.5,0c15.9,0.1,31.7,5.5,44.6,14.8
				c21.8,15.7,36,41.4,37.8,68.2c1.2,19.7-3.8,39.7-14.2,56.5c-9,14.6-22.4,26.6-38.4,32.9c-9.5,3.8-19.7,5.5-29.9,5.4
				c-30.1,0-60.1,0-90.2,0c0,34.7,0,69.3,0,104C609.2,1458.4,600.1,1458.4,590.9,1458.4 M618.3,1201.2c0,42.9,0,85.7,0,128.6
				c30,0,60.1,0,90.1,0c11.2,0.1,22.4-3.7,31.2-10.8c11.2-9,18.5-22.2,21.7-36.1c4-17.3,2.1-36.3-6.9-51.8
				c-9.5-17.1-27.9-29.8-47.9-29.9C677.1,1201.2,647.7,1201.2,618.3,1201.2z"/>
			<path id="path8" class="st8" d="M893.7,1176.6c7.5,0,15.1,0,22.6,0c39.3,93.9,78.7,187.8,118,281.8c-9.9,0-19.8,0-29.8,0
				c-12.2-29.4-24.4-58.7-36.5-88.1c-42.2,0-84.5,0-126.7,0c-12,29.4-24.1,58.7-36.1,88.1c-9.8,0.1-19.6,0-29.4,0
				C815,1364.5,854.4,1270.5,893.7,1176.6 M847.2,1348.5c38.1,0,76.2,0,114.3,0c-18.8-46.5-37.6-92.9-56.4-139.3
				C885.9,1255.6,866.5,1302,847.2,1348.5z"/>
			<path class="st8" d="M1316.1,1176.6c9.1,0,18.3,0,27.4,0c0,41.8,0,83.6,0,125.4c55.7,0,111.5,0,167.2,0c0-41.8,0-83.6,0-125.4
				c9.3,0,18.5,0,27.8,0c0,93.9,0,187.9,0,281.8c-9.3,0-18.6,0-27.8,0c0-43.9,0-87.8,0-131.8c-55.7,0-111.5,0-167.2,0
				c0,43.9,0.1,87.9-0.1,131.8c-9.1,0-18.2,0-27.4,0C1316.1,1364.5,1316.1,1270.5,1316.1,1176.6L1316.1,1176.6z"/>
			<path class="st8" d="M1602.3,1176.6c61.9,0,123.9,0,185.8,0c0,8.2,0,16.4,0,24.6c-52.8,0-105.6,0-158.5,0c0,33.9,0,67.7,0,101.6
				c46.1,0,92.2,0,138.2,0v23.4c-46.1,0-92.2,0-138.2,0c0,35.9,0,71.7,0,107.6c54,0,108.1,0,162.1,0c0,8.2,0,16.4,0,24.6
				c-63.2,0-126.3,0-189.5,0C1602.3,1364.5,1602.3,1270.5,1602.3,1176.6z"/>
		</g>
		<g transform="translate(-473.85)">
			<path id="path8_1_" class="st8" d="M419.8,1176.6c7.5,0,15.1,0,22.6,0c39.3,93.9,78.7,187.8,118,281.8c-9.9,0-19.8,0-29.8,0
				c-12.2-29.4-24.4-58.7-36.5-88.1c-42.2,0-84.5,0-126.7,0c-12,29.4-24.1,58.7-36.1,88.1c-9.8,0.1-19.6,0-29.4,0
				C341.2,1364.5,380.5,1270.5,419.8,1176.6 M373.4,1348.5c38.1,0,76.2,0,114.3,0c-18.8-46.5-37.6-92.9-56.4-139.3
				C412,1255.6,392.6,1302,373.4,1348.5z"/>
		</g>
	</g>
	<g transform="matrix(.12404 0 0 .12404 2082.9 628.62)">
		<path class="st9" d="M1146.9,4635.3c35.5,0,71.1,0,106.6,0c0,7.6,0,15.2,0,22.8c-13.2,0-26.5,0-39.7,0c0,37.1,0,74.2,0,111.4
			c-9,0-18.1,0-27.1,0c0-37.1,0-74.2,0-111.4c-13.2,0-26.5,0-39.8,0C1146.9,4650.5,1146.9,4642.9,1146.9,4635.3z"/>
		<path class="st9" d="M1270.5,4769.5c0-44.7,0-89.5,0-134.2c13.5,0,27,0,40.6,0c8.1,30.5,16.2,61,24.3,91.5
			c8.1-30.5,16.1-61,24.1-91.5c13.5,0,27.1,0,40.6,0c0,44.7,0,89.5,0,134.2c-8.4,0-16.7,0-25.1,0c0-35.2,0-70.4,0-105.5
			c-8.9,35.2-17.8,70.4-26.6,105.5c-8.7,0-17.4,0-26,0c-8.9-35.2-17.7-70.3-26.5-105.5c0,35.1,0,70.3,0,105.5
			C1287.4,4769.5,1278.9,4769.5,1270.5,4769.5z"/>
	</g>
	<g transform="matrix(3.9605 0 0 -3.9605 -58.815 880.12)">
		<path class="st10" d="M502.1-96h30.2c1.2,5.7,2.5,11.3,3.7,17c8.6,0,17.5-0.1,26.1-0.1c4.2,0,7.9,1.3,11.2,3.5
			c4,2.7,7,6.8,8.1,11.9c1.9,8.6,3.8,17.3,5.7,25.9c1.1,4.9,2.5,10.5-1,14.9c-3.2,4.1-7.6,4.4-12.3,4.4c-34.1,0-68.1,0-102.2,0
			c-3.4,0-6.3-1.1-9.3-2.7c-2.8,2-5.4,2.7-8.8,2.7h-46.8c1.3,5.7,2.6,11.5,3.8,17.2h-30.2c-1.2-5.6-2.5-11.2-3.7-16.8H350
			c-3.7,0-7.2-1.2-10.3-3.1c-3,1.9-5.3,2.7-8.8,2.7h-87.7c1.3,5.8,2.7,11.6,4,17.5c-10.1,0-20.1,0-30.2,0
			c-5.8-25.9-11.6-51.9-17.4-77.8c10.1,0,20.1,0,30.1,0c3,13.3,6,26.6,9.1,39.8H249c1.2,0,1-0.7,0.8-1.6
			c-2.9-12.7-5.7-25.5-8.6-38.2c66.6,0,133.2,0,199.9,0c3.4,0,6,0.7,9.1,2.3c3-2,5.7-2.7,9.3-2.6l46.3,0.4
			C504.5-84.5,503.3-90.3,502.1-96L502.1-96z M371.5-39h-8.9c-1.6,0-2-0.7-2.3-2.1c-1.1-5-2.2-10-3.3-15c-0.3-1.4,0.4-1.7,1.7-1.7
			h8.7C368.7-51.5,370.1-45.2,371.5-39L371.5-39z M422.5-39.3h9.5c1.8,0,1.7-1,1.4-2.4c-1.1-4.9-2.2-9.8-3.3-14.7
			c-0.4-1.7-1.4-1.7-2.9-1.7h-9.7c-1.4,0-1.4,0.8-1.2,2c1.1,4.9,2.2,9.8,3.3,14.7C420.1-39.6,420.8-39.3,422.5-39.3L422.5-39.3z
			 M485.1-39.3h9.5c1.8,0,1.7-1,1.4-2.4c-1.1-4.9-2.2-9.8-3.3-14.7c-0.4-1.7-1.4-1.7-2.9-1.7h-9.7c-1.4,0-1.4,0.8-1.2,2
			c1.1,4.9,2.2,9.8,3.3,14.7C482.6-39.6,483.3-39.3,485.1-39.3L485.1-39.3z M540.9-58.3h8.9c1.6,0,2,0.7,2.3,2.1
			c1.1,5,2.2,10,3.3,15c0.3,1.4-0.4,1.7-1.7,1.7h-8.7C543.7-45.8,542.3-52,540.9-58.3"/>
		<g>
			<path id="path124" class="st11" d="M415.6-22.8h37.9c5.9,0,9.7-4.8,8.4-10.8L455.1-64c-1.3-5.9-7.2-10.8-13.1-10.8h-37.9
				c-5.9,0-9.7,4.8-8.4,10.8l6.8,30.5C403.8-27.6,409.7-22.8,415.6-22.8L415.6-22.8z M422.5-35h18.7c3.1,0,5.1-2.6,4.4-5.7
				l-3.6-16.1c-0.7-3.1-3.8-5.7-7-5.7h-18.7c-3.1,0-5.1,2.6-4.4,5.7l3.6,16.1C416.2-37.6,419.3-35,422.5-35"/>
			<path id="path130" class="st11" d="M391-4.9l-3.9-17.4l-30.9,0c-5.9,0-11.8-4.8-13.1-10.8l-6.8-30.5c-1.3-5.9,2.5-10.8,8.4-10.8
				h45.5l11.5,52l3.9,17.4L391-4.9L391-4.9z M363.1-34.6h21.3l-6.1-27.5H357c-3.1,0-5.1,2.5-4.4,5.7l3.6,16.2
				C356.8-37.1,360-34.6,363.1-34.6L363.1-34.6z"/>
			<path class="st11" d="M227.6-4.9l-5.9-26.6h0.1l-0.2-1.1c-0.1-0.3-0.2-0.6-0.2-0.9l-4.9-22.1h0.1l-4.2-18.8h14.6l4.2,18.8h0
				l3.3,14.9c0,0,0,0.1,0,0.1l1.3,5.6h21.3c3.1,0,5.1-2.6,4.4-5.7L258-55.8l-4.1-18.6h14.6l4.1,18.6h0l4.9,22.3
				c1.3,5.9-2.5,10.8-8.4,10.8h-30.9l3.9,17.8L227.6-4.9L227.6-4.9z"/>
			<path class="st11" d="M330.9-74.3h-48.6c-5.9,0-9.7,4.8-8.4,10.8l2,8.8h0l0.4,1.7c1.3,5.9,7.2,10.8,13.1,10.8l34,0l0.5,2.3
				c0.5,2.9-1.3,5.3-4.2,5.5h-39.4l2.7,12.2l48.9,0c5.8-0.1,9.5-4.9,8.2-10.8l-0.9-4.2h0l-1.1-5h0l-5.7-25.9h0L330.9-74.3
				L330.9-74.3z M293.1-62.1H319l1.7,7.6h-25.5c-0.1,0-0.2,0-0.4,0c-2.1,0-4.2-1.7-4.6-3.8C289.7-60.4,291-62,293.1-62.1
				C293.1-62.1,293.1-62.1,293.1-62.1"/>
			<g transform="translate(62.48)">
				<path id="path124_1_" class="st11" d="M478.1-22.8H516c5.9,0,9.7-4.8,8.4-10.8L517.6-64c-1.3-5.9-7.2-10.8-13.1-10.8h-37.9
					c-5.9,0-9.7,4.8-8.4,10.8l6.8,30.5C466.2-27.6,472.2-22.8,478.1-22.8L478.1-22.8z M484.9-35h18.7c3.1,0,5.1-2.6,4.4-5.7
					l-3.6-16.1c-0.7-3.1-3.8-5.7-7-5.7h-18.7c-3.1,0-5.1,2.6-4.4,5.7l3.6,16.1C478.7-37.6,481.8-35,484.9-35"/>
			</g>
			<g transform="rotate(180 424.74 95.927)">
				<path id="path130_1_" class="st11" d="M529-92.1l3.9,17.4l30.9,0c5.9,0,11.8,4.8,13.1,10.8l6.8,30.5c1.3,5.9-2.5,10.8-8.4,10.8
					h-45.5l-11.5-52l-3.8-17.4L529-92.1L529-92.1z M556.9-62.5h-21.3l6.1,27.5H563c3.1,0,5.1-2.5,4.4-5.7l-3.6-16.2
					C563.2-59.9,560.1-62.5,556.9-62.5L556.9-62.5z"/>
			</g>
		</g>
		<path d="M90.1-42.7c-0.2-0.7-0.5-1.3-0.7-2L88-44.1c0.2,0.7,0.5,1.3,0.7,2L90.1-42.7z M89.4-44.6c-0.4-1-0.7-1.9-1.1-2.9l-1.4,0.5
			c0.4,1,0.7,1.9,1.1,2.9L89.4-44.6z M88.3-47.6l-0.2-0.3l-0.5,0.5L88.3-47.6z M88.1-47.8c-0.8-0.8-1.6-1.6-2.4-2.3l-1,1
			c0.8,0.8,1.6,1.6,2.4,2.3L88.1-47.8z M85.8-50.2c-0.7-0.7-1.4-1.4-2.1-2.1l-1,1c0.7,0.7,1.4,1.4,2.1,2.1L85.8-50.2z M83.7-52.2
			c-0.3-0.3-0.4-0.4-0.5-0.5l-1,1.1c0.2,0.2,0.4,0.4,0.5,0.5L83.7-52.2z M83.2-52.7c-0.9-0.9-1.1-1.1-0.9-2.7l-1.5-0.2
			c-0.4,2.4-0.1,2.7,1.3,4L83.2-52.7z M82.3-55.5c0.2-1.3,0.7-2.6,1.3-3.9l-1.3-0.7c-0.8,1.4-1.2,2.9-1.5,4.4L82.3-55.5z M83.6-59.4
			c0.6-1.2,1.5-2.4,2.5-3.4l-1-1c-1.2,1.2-2.1,2.5-2.8,3.8L83.6-59.4z M86.2-62.8c1.4-1.4,3.6-3.1,6-4l-0.5-1.4
			c-2.6,1-5,2.8-6.5,4.3L86.2-62.8z M92.2-66.8c1.6-0.6,3.3-0.8,4.7-0.2l0.6-1.3c-1.8-0.8-3.8-0.6-5.8,0.2L92.2-66.8z M96.8-67
			l1.4,0.6l-0.4-1.5l-0.7,0.2L96.8-67z M97.8-67.9c-0.2-0.7-0.4-1.4-0.6-2l-1.4,0.5c0.2,0.7,0.4,1.3,0.6,1.9L97.8-67.9z M97.2-69.9
			c-0.2-0.6-0.5-1.3-0.8-1.9L95-71.3c0.3,0.6,0.5,1.2,0.7,1.8L97.2-69.9z M96.4-71.9c-1.2-2.7,0.1-4.2,2.1-5.1l-0.6-1.3
			c-2.8,1.3-4.5,3.2-2.8,7L96.4-71.9z M98.5-77c1.3-0.6,2.9-1,4.3-1.4l-0.4-1.4c-1.5,0.4-3.2,0.8-4.6,1.5L98.5-77z M102.8-78.3
			c0.4-0.1,0.8-0.2,1-0.3l-0.4-1.4c-0.4,0.1-0.7,0.2-1,0.3L102.8-78.3z M103.8-78.6c1.8-0.5,4.8-1.3,7.5-1.5l-0.1-1.5
			c-2.9,0.2-6,1.1-7.8,1.6L103.8-78.6z M111.3-80.1c2.5-0.2,4.7,0.3,5.2,2.1l1.4-0.4c-0.8-2.8-3.6-3.4-6.7-3.2L111.3-80.1z
			 M116.5-78c0.3,1,0.4,1.8,0.5,2.5l1.5-0.1c-0.1-0.8-0.2-1.7-0.5-2.8L116.5-78z M117-75.5c0.1,0.8,0,1.5-0.1,2.5l1.5,0.1
			c0.1-1.1,0.1-1.9,0.1-2.7L117-75.5z M116.9-73l0.1,0.4l0.7-0.3L116.9-73z M117-72.6c1,2.2,1.4,2.8,2.1,3.9l1.2-0.8
			c-0.7-1-1-1.5-2-3.6L117-72.6z M119.1-68.8c0.1,0.1,0.1,0.2,0.3,0.5l1.2-0.8c0-0.1-0.2-0.3-0.3-0.5L119.1-68.8z M119.4-68.3
			c0.6,0.8,0.8,1.4,0.9,2l1.5-0.2c-0.1-0.8-0.4-1.6-1.1-2.6L119.4-68.3z M120.3-66.3c0.1,0.6,0,1.3-0.1,2.4l1.5,0.2
			c0.1-1.2,0.2-2,0.1-2.8L120.3-66.3z M120.2-63.9c0,0.3-0.1,0.5-0.1,0.7l1.5,0.2c0-0.3,0.1-0.6,0.1-0.7L120.2-63.9z M120.1-63.2
			c0,0.1-0.1,0.4-0.1,0.7l1.5,0.2c0-0.2,0.1-0.4,0.1-0.8L120.1-63.2z M120-62.5l-0.1,1l1-0.1l-0.1-0.7L120-62.5z M120.8-61.6
			c2.1-0.3,4.1-0.5,6.2-0.5l0-1.5c-2.1,0-4.2,0.2-6.4,0.5L120.8-61.6z M127-62.1c2,0,4.1,0.1,6.1,0.4l0.2-1.5
			c-2.1-0.3-4.2-0.4-6.3-0.4L127-62.1z M133.1-61.7l0.5-1.4l-0.4,0.6L133.1-61.7z M133.6-63.1c-1.2-0.7-2.4-1.3-3.9-2.1l-0.7,1.3
			c1.5,0.8,2.7,1.4,3.8,2L133.6-63.1z M129.7-65.2c-0.1-0.1-0.2-0.1-0.3-0.2l-0.7,1.3c0.1,0.1,0.2,0.1,0.3,0.2L129.7-65.2z
			 M129.3-65.4c-1.6-0.8-1.6-2.5-1-4.2l-1.4-0.4c-0.8,2.4-0.7,4.8,1.8,6L129.3-65.4z M128.3-69.6c0.6-2,1.9-4.1,2.8-5.4l-1.2-0.8
			c-0.9,1.4-2.3,3.6-3,5.7L128.3-69.6z M131.1-75c1.7-2.7,3.4-4.9,5.3-6.1l-0.8-1.3c-2.1,1.3-3.9,3.7-5.7,6.6L131.1-75z M136.4-81.1
			c1.8-1.1,3.9-1.2,6.6,0.3l0.7-1.3c-3.3-1.8-5.8-1.6-8.1-0.3L136.4-81.1z M143-80.8c1.3,0.7,1.7,1.5,2.3,2.5l1.3-0.7
			c-0.7-1.2-1.2-2.2-2.9-3.1L143-80.8z M145.3-78.3c0.2,0.4,0.5,0.9,0.9,1.4l1.2-0.8c-0.3-0.5-0.6-0.9-0.8-1.3L145.3-78.3z
			 M146.2-76.8l0.3,0.2l0.4-0.6L146.2-76.8z M146.4-76.6c0.4,0.2,2.3,1.8,4.1,3.2l0.9-1.1c-1.8-1.5-3.8-3.1-4.3-3.4L146.4-76.6z
			 M150.5-73.4c0.9,0.8,1.8,1.5,2.3,1.9l0.9-1.2c-0.9-0.7-1.6-1.3-2.3-1.9L150.5-73.4z M152.8-71.5l0.6,0.5l0.5-0.6l-0.6-0.5
			L152.8-71.5z M153.8-71.6c0.3-0.4,0.8-0.6,1.4-0.7l-0.3-1.4c-0.9,0.2-1.7,0.6-2.2,1.2L153.8-71.6z M155.2-72.3
			c0.7-0.2,1.7-0.3,2.8-0.3l-0.1-1.5c-1.2,0.1-2.2,0.2-3.1,0.4L155.2-72.3z M158.1-72.7c0.9-0.1,3.8-0.1,5.7-0.1v-1.5
			c-1.9,0-4.9,0-5.8,0.1L158.1-72.7z M163.7-72.7c0.6,0,1.1,0,1.4,0l0-1.5c-0.3,0-0.8,0-1.4,0L163.7-72.7L163.7-72.7z M165.1-72.7
			c1.7,0,3.1,0.1,4,0.6l0.7-1.3c-1.2-0.7-2.8-0.8-4.8-0.8L165.1-72.7L165.1-72.7z M169.1-72.1c0.8,0.5,1.3,1.4,1.5,3.1l1.5-0.1
			c-0.2-2.3-0.9-3.6-2.2-4.3L169.1-72.1z M170.6-69c0.1,0.9,0.1,1.4,0,1.9l1.4,0.3c0.1-0.6,0.1-1.3,0.1-2.3L170.6-69z M170.6-67.1
			c-0.1,0.5-0.3,0.9-0.8,1.7l1.3,0.7c0.5-0.9,0.8-1.5,0.9-2.1L170.6-67.1z M169.8-65.4l-0.1,0.3l0.7,0L169.8-65.4z M169.7-65.1
			c0,1.1-0.1,2.1-0.1,3.2l1.5,0c0-1.1,0.1-2.1,0.1-3.2L169.7-65.1z M169.6-61.9c0,1.1-0.1,2.1-0.1,3.2l1.5,0c0-1.1,0.1-2.1,0.1-3.2
			L169.6-61.9z M169.5-58.7c0,1.1-0.2,2-0.4,2.9l1.4,0.4c0.3-1,0.4-2,0.4-3.3L169.5-58.7z M169.2-55.8c-0.2,0.9-0.6,1.8-1,2.9
			l1.4,0.6c0.5-1.1,0.8-2.1,1.1-3.1L169.2-55.8z M168.1-52.9c-0.3,0.8-0.6,1.5-0.9,2.2l1.4,0.5c0.3-0.7,0.5-1.4,0.8-2.2L168.1-52.9z
			 M168.6-50.2L168.6-50.2l-0.7-0.3L168.6-50.2z M167.3-50.7c-0.4,1.1-0.8,2.2-1.4,3.4l1.3,0.7c0.6-1.2,1.1-2.4,1.5-3.6L167.3-50.7z
			 M165.8-47.3l-0.1,0.5l0.7-0.1L165.8-47.3z M165.8-46.8c0.1,0.4,0.1,0.8,0.2,1.1l1.5-0.2c-0.1-0.4-0.1-0.9-0.2-1.2L165.8-46.8z
			 M165.9-45.7c0,0.3,0.1,0.7,0.1,1.2l1.5-0.1c0-0.3-0.1-0.8-0.1-1.2L165.9-45.7z M166.1-44.5l0.1,1.5l1.1-1.1l-0.5-0.5L166.1-44.5z
			 M167.3-44c0.7-0.7,1.4-1.4,2.2-2.1l-1-1.1c-0.7,0.7-1.4,1.4-2.2,2.1L167.3-44z M169.5-46.1l1.6-1.6l-1-1.1l-1.6,1.6L169.5-46.1z
			 M171.1-47.6c1.2-1.1,2.2-2.1,3.4-2.8l-0.7-1.3c-1.3,0.8-2.5,1.9-3.7,3.1L171.1-47.6z M174.5-50.5c1.1-0.7,2.4-1.1,4.1-1l0.1-1.5
			c-2-0.1-3.5,0.4-4.9,1.2L174.5-50.5z M178.6-51.5c1.8,0.1,3.7,0.9,5.4,2.1l0.9-1.2c-1.8-1.4-4.1-2.2-6.2-2.3L178.6-51.5z
			 M184-49.4c1.5,1.1,2.8,2.6,3.3,4.3l1.4-0.4c-0.6-2-2-3.7-3.8-5.1L184-49.4z M187.3-45.1c0.2,0.6,0.3,1.1,0.5,1.7l1.4-0.4
			c-0.2-0.6-0.3-1.1-0.5-1.7L187.3-45.1z M187.8-43.4c0.2,0.7,0.4,1.3,0.6,2l1.4-0.4c-0.2-0.7-0.4-1.3-0.6-2L187.8-43.4z
			 M188.4-41.4l0.2,0.6l0.6-0.1l-0.1-0.7L188.4-41.4z M189.2-40.9c3-0.6,6.2-0.8,9.4-0.4l0.1-1.5c-3.3-0.3-6.7-0.1-9.8,0.5
			L189.2-40.9z M198.6-41.4c2.7,0.3,5.4,1,7.7,2.2l0.7-1.3c-2.4-1.3-5.3-2.1-8.2-2.4L198.6-41.4z M206.2-39.2
			c3.3,1.8,5.8,4.4,7.6,7.5l1.3-0.7c-1.9-3.4-4.6-6.2-8.2-8.1L206.2-39.2z M213.9-31.6L213.9-31.6l0.6-0.4L213.9-31.6L213.9-31.6z
			 M213.9-31.6c2.1,3.6,3.2,7.8,3.7,12.1l1.5-0.1c-0.5-4.5-1.7-9-3.8-12.7L213.9-31.6z M217.5-19.5c0.4,3.5,0.2,8.4-0.6,13l1.5,0.2
			c0.8-4.8,1-9.7,0.6-13.4L217.5-19.5z M217-6.5c-0.7,4.1-1.7,8.1-3.2,10.9l1.3,0.7c1.6-3,2.7-7.1,3.3-11.4L217-6.5z M213.7,4.4
			c-0.1,0.2-0.3,0.5-0.6,0.7l1,1.1c0.4-0.4,0.6-0.7,0.8-1.1L213.7,4.4z M213.2,5.1c-0.6,0.6-1.6,1.2-2.5,1.5l0.5,1.4
			c1.2-0.4,2.3-1.1,3.1-1.9L213.2,5.1z M210.6,6.7c-0.9,0.3-1.8,0.4-2.5,0.1L207.5,8c1,0.5,2.4,0.5,3.6,0L210.6,6.7z M208.2,6.7
			c-0.1-0.1-0.3-0.2-0.4-0.3l-1.1,1c0.2,0.2,0.5,0.4,0.8,0.6L208.2,6.7z M207.8,6.4c-0.6-0.6-1.1-1.4-1.7-2.2l-1.2,0.8
			c0.6,0.8,1.1,1.7,1.8,2.4L207.8,6.4z M206.2,4.3c-0.7-1-1.4-2-2.3-2.8l-1,1.1c0.8,0.7,1.4,1.6,2,2.5L206.2,4.3z M203.8,1.5
			c-1.1-0.9-2.4-1.5-3.6-1.9l-0.5,1.4c1.1,0.4,2.3,0.9,3.2,1.7L203.8,1.5z M200.3-0.5c-0.2-0.1-0.4-0.2-0.5-0.2l-0.6,1.4
			c0.2,0.1,0.4,0.2,0.6,0.2L200.3-0.5z M199.7-0.7L199-1l-0.3,0.7l0.7,0.3L199.7-0.7z M198.7-0.3c-0.5,1.3-1.1,2.4-1.7,3.5l1.2,0.8
			c0.7-1.2,1.4-2.4,1.9-3.8L198.7-0.3z M197,3.2c-0.7,1.1-1.5,2.1-2.3,3.1l1.1,0.9c0.9-1.1,1.7-2.1,2.4-3.3L197,3.2z M194.7,6.4
			c-0.7,0.8-1.3,1.4-2,1.9l0.9,1.2c0.8-0.6,1.5-1.2,2.2-2.1L194.7,6.4z M192.7,8.3c-0.7,0.5-1.5,1-2.4,1.6l0.8,1.2
			c0.9-0.6,1.7-1.1,2.5-1.7L192.7,8.3z M190.3,9.8c-2.6,1.6-4.7,3.5-6.9,5.4l1,1.1c2.2-1.9,4.3-3.7,6.7-5.3L190.3,9.8z M183.4,15.3
			c-0.9,0.8-1.9,1.6-2.9,2.5l0.9,1.1c1-0.8,2-1.7,2.9-2.5L183.4,15.3z M180.5,17.8c-4.9,4-9.4,6-14.2,6.3l0.1,1.5
			c5.1-0.3,9.9-2.4,15-6.6L180.5,17.8z M166.3,24c-4.8,0.3-10-1-16.1-3.6l-0.6,1.4c6.3,2.7,11.7,4.1,16.8,3.7L166.3,24z M150.2,20.4
			c-2.9-1.2-5-2.6-6.9-4.4l-1,1.1c2,1.8,4.2,3.3,7.3,4.6L150.2,20.4z M143.4,16c-1.9-1.7-3.5-3.8-5.3-6.2l-1.2,0.9
			c1.8,2.5,3.5,4.6,5.5,6.4L143.4,16z M138.1,9.9l-0.2-0.3l-0.3,0l0,0.7L138.1,9.9z M137.5,9.6c-1-0.1-1.9-0.2-2.7-0.5l-0.5,1.4
			c1,0.4,2,0.6,3.2,0.6L137.5,9.6z M134.8,9.1c-0.9-0.3-1.8-0.9-2.9-1.9l-1,1.1c1.2,1.1,2.3,1.7,3.3,2.2L134.8,9.1z M132,7.2
			c-0.8-0.7-1.7-1.5-2.5-2.3l-1,1.1c0.8,0.8,1.6,1.6,2.5,2.3L132,7.2z M129.5,4.9L129.5,4.9L129,5.4L129.5,4.9L129.5,4.9z
			 M129.5,4.9c-0.8-0.8-1.6-1.6-2.3-2.4l-1.1,1c0.8,0.8,1.6,1.6,2.4,2.4L129.5,4.9z M127.1,2.5l-0.4-0.2L126.6,3L127.1,2.5z
			 M126.7,2.3c-5.8-0.9-10.4-1.9-14.6-3.5l-0.5,1.4c4.3,1.7,9,2.7,14.9,3.6L126.7,2.3z M112.1-1.2c-4.1-1.6-7.8-3.8-11.5-7.1l-1,1.1
			c3.9,3.5,7.7,5.7,12,7.4L112.1-1.2z M100.6-8.4c-1.5-1.3-2.8-2.8-4-4.3l-1.2,0.9c1.2,1.6,2.6,3.1,4.2,4.5L100.6-8.4z M96.6-12.6
			c-1.1-1.5-2.1-3.1-3-4.8l-1.3,0.7c0.9,1.8,1.9,3.4,3.1,5L96.6-12.6z M93.6-17.4l-0.1-0.2L93-17.1L93.6-17.4z M93.5-17.6
			c-0.8-0.9-1.7-1.9-2.6-2.7l-1,1.1c0.9,0.8,1.7,1.7,2.5,2.6L93.5-17.6z M90.9-20.2c-0.9-0.8-2-1.6-3.1-2l-0.5,1.4
			c1,0.4,1.9,1,2.7,1.7L90.9-20.2z M87.8-22.3L87.8-22.3l-0.3,0.7L87.8-22.3z M87.8-22.3c-0.9-0.4-1.4-0.5-1.9-0.3l0.6,1.4
			c0,0,0.3,0.1,0.8,0.3L87.8-22.3z M85.9-22.6L85.9-22.6l0.3,0.7L85.9-22.6L85.9-22.6z M85.9-22.6c-0.6,0.2-0.7,0.7-1,1.6l1.4,0.5
			c0.2-0.5,0.2-0.7,0.2-0.8L85.9-22.6z M84.8-21l-0.2,0.5l0.4,0.3l0.4-0.6L84.8-21z M85.1-20.1c1.4,1,1.5,3,1.6,5l1.5-0.1
			c-0.1-2.3-0.3-4.7-2.2-6.1L85.1-20.1z M86.7-15.1c0,0.3,0,0.5,0,0.7l1.5-0.1c0-0.3,0-0.5,0-0.7L86.7-15.1z M86.7-14.4l0.1,0.7
			l0.7,0l0-0.7L86.7-14.4z M87.5-13.7c1.2-0.1,1.8-0.9,2.4-1.8l-1.2-0.8c-0.4,0.6-0.7,1.1-1.2,1.2L87.5-13.7z M89.9-15.6
			c0.2-0.3,0.3-0.5,0.5-0.8l-1.2-0.9c-0.2,0.3-0.4,0.6-0.6,0.9L89.9-15.6z M90.5-17l-0.3-1.5l-1,1.2l0.6,0.5L90.5-17z M89.1-16.6
			c0.2,1.1,0.4,2.6,0.2,3.8l1.4,0.3c0.3-1.5,0.1-3.1-0.2-4.4L89.1-16.6z M89.2-12.9c-0.2,0.8-0.5,1.4-1.2,1.8l0.7,1.3
			c1.1-0.6,1.7-1.6,2-2.8L89.2-12.9z M88-11.1l-0.6,0.3l0.2,0.6l0.7-0.3L88-11.1z M87.7-10.2c0.1,0.3,0.3,0.7,0.4,1.1l1.4-0.5
			c-0.1-0.3-0.3-0.7-0.4-1.1L87.7-10.2z M88.1-9.1c0.2,0.6,0.4,1.1,0.7,1.8l1.4-0.5C90-8.4,89.7-9,89.5-9.6L88.1-9.1z M89.4-6.8
			l1.2,0.2l-0.4-1.2l-0.7,0.2L89.4-6.8z M89.6-8.3c-1.4-0.2-4.6-2-6.9-4.4l-1.1,1c2.5,2.6,6,4.5,7.7,4.8L89.6-8.3z M82.7-12.6
			c-0.8-0.9-1.5-1.8-2-2.7l-1.3,0.6c0.5,1.1,1.3,2.2,2.2,3.1L82.7-12.6z M80.8-15.4c-0.4-0.9-0.6-1.8-0.5-2.7l-1.5-0.2
			c-0.2,1.2,0,2.4,0.6,3.6L80.8-15.4z M80.3-18.1c0.1-0.8,0.6-1.6,1.4-2.4l-1-1.1c-1.1,1-1.6,2.1-1.8,3.2L80.3-18.1z M81.7-20.5
			l0.2-0.4L81.2-21L81.7-20.5z M81.9-20.9c0.2-0.8,0.4-1.4,0.5-2l-1.4-0.4c-0.2,0.6-0.4,1.3-0.6,2.1L81.9-20.9z M82.5-22.9
			c0.2-0.6,0.4-1.1,0.6-1.6L81.7-25c-0.3,0.6-0.5,1.1-0.7,1.7L82.5-22.9z M83.1-24.4c0.5-1.1,1.4-1.8,2.3-2.1l-0.4-1.4
			c-1.3,0.4-2.5,1.3-3.2,2.9L83.1-24.4z M85.4-26.5c1.1-0.4,2.4-0.3,3.7,0.2l0.5-1.4c-1.5-0.6-3.2-0.7-4.7-0.3L85.4-26.5z
			 M89.1-26.3l1.3,0.5l-0.3-1.3l-0.7,0.2L89.1-26.3z M90.1-27.1c-0.3-1.6-0.6-3.3-0.6-5.1L88-32.2c0.1,2,0.3,3.7,0.7,5.4L90.1-27.1z
			 M89.4-32.2c-0.1-1.9,0-4,0.2-6.5l-1.5-0.1c-0.2,2.5-0.3,4.7-0.2,6.7L89.4-32.2z M89.6-38.7c0.1-0.6,0.1-1.2,0.2-1.7l-1.5-0.2
			c-0.1,0.7-0.2,1.3-0.2,1.8L89.6-38.7z M89.8-40.5c0.1-0.6,0.2-1.2,0.3-1.8l-1.4-0.3c-0.1,0.6-0.2,1.2-0.3,1.9L89.8-40.5z
			 M90.1-42.3l0-0.4l-0.7,0.3"/>
		<g>
			<path class="st12" d="M127,1.9l-9.7-1.6l-8.9-3.9l-7.5-4.7l-7.2-8.7l-4-4.3l-3.9-1.4l-1,2.5l1.8,2.6L87-14l1.2,0l1.3-1.2
				l-0.4,3.7l-1.5,1l0,1.4l-3.5-2l-3.1-3.7l-0.7-3.3l1.3-2.7l1.3-4.5l2.6-1.2l2.7,0.1l2.5,1.5l-1.7-8.6l1.7-9.6L89-47.4L82.9-54
				L84-58l2.9-4.6l5.5-3.8l2.9-0.4l3.2-0.1l-2-8.3l7.4-3l9.2-1.2l3.2,2.1l0.2,5.6l3.5,5.8l0.2,4.6l8.5-0.6l7.9,0.7l-7.9-4.7l1.3-5.7
				l5-7.8l4.9-2.1l3.9,1.6l1.6,3.2l8.1,6.2l1.6-1.3l12.7-0.5l2.5,2.1l0.2,3.6l-0.8,1.6l-0.6,9.8l-4.2,8.5l0.7,3.8l2.5-1.3l7.2-6.7
				l3.5-0.2l3.9,1.6l3.9,2.9l1.9,6.3l11.4-0.7l6.9,2.7l5.6,5.2l4,7.5l1,8.9l-0.8,10.3l-2.2,9.2l-2.2,2.9l-3,1l-5.3-5.8L198.9-1
				l-4.2,7l-4.2,3.9l-2.3,1.5l-9.2,7.6l-7.4,4l-7.4,0.6l-8.6-1.5l-7.5-2.8l-5.2-4.2l-4.1-5l-4.2-1.2L127,1.9z"/>
			<g>
				<path class="st13" d="M98.9-20c-8.3-9.7-6.5-21.5-4.2-33c-1.2,3.1-2.5,6.2-3.7,9.3l-1.4,8.5c0.1,2.9,0.3,5.8,0.4,8.7
					c1.2,2.8,2.3,5.6,3.5,8.3c1.7,2.6,3.5,5.2,5.2,7.8c2.7,2.3,5.4,4.5,8.2,6.8c3,1.2,6,2.5,8.9,3.7c3.5,0.5,7,0.9,10.5,1.4
					c-3.2-3.7-6.5-7.4-9.7-11.1C108.8-12.1,104.2-13.8,98.9-20"/>
				<path class="st13" d="M138,9.5c-5.8-5.6-8.9-9.9-12.6-16.5c-2.6-4.7-5.6-9.3-8.3-13.9c-1.4-2.4-1.5-4.3-1.9-7.1
					c-1.4,1.6-2.7,3.2-4.1,4.9c0.6,1.9,1.3,3.9,1.9,5.8c2.2,3.9,4.4,7.9,6.6,11.8c4.7,4.6,9.3,9.2,14,13.8
					C135,8.7,136.5,9.1,138,9.5"/>
				<path class="st13" d="M166.5,23.5c-4.6-1.7-12.3-2.3-12.8-7.6c-0.4-3.8,0.3-5.7,2.6-9.7c-5.6,5.8-7,4.9-17.9,3.1
					c1.6,2.2,3.1,4.4,4.7,6.6c2.7,1.7,5.4,3.4,8.2,5c3.5,0.8,7,1.6,10.5,2.3C163.3,23.4,164.9,23.4,166.5,23.5"/>
			</g>
			<g>
				<path class="st14" d="M179.3-48.4c1.5-1,1.5-1.6,1.3-2.3c1.2,0.5,2.4,1,3.6,1.5c0.8,1.1,1.6,2.1,2.4,3.2c0.6,1.5,1.2,3,1.8,4.5
					c-0.7,0.6-1.5,1.1-2.2,1.7c-3.3-0.4-6.5-0.8-9.8-1.3c-0.2-0.7-0.5-1.3-0.7-2c0.1-0.9,0.1-1.9,0.2-2.8c0.3-0.6,0.6-1.1,0.9-1.7
					c0.5-0.2,1-0.5,1.5-0.7C178.5-48.3,178.9-48.3,179.3-48.4"/>
				<path class="st14" d="M178.4-31.6c-4.9-1.4-4.9-1.8-6.3-6.7C174-35.2,175.4-33.7,178.4-31.6"/>
				<path class="st14" d="M211,4.8c-0.9-0.4-1.7-0.6-2.3-1.4c-1.2-1.7-2.2-3.2-4.1-4.4c-1-0.6-2-1-3-1.3c-0.9-0.3-1.4,0-2.1-0.6
					c0.4-0.1,0.9-0.2,1.3-0.2h2.9c1.2,0.7,2.4,1.5,3.5,2.2c0.7,0.7,1.4,1.5,2.1,2.2C209.9,2.5,210.5,3.6,211,4.8"/>
				<path class="st14" d="M132.8-6.1c-1.9-5.3-3.6-9.8-6.5-14.6c3.7,4,6,7.5,8.2,12c0.8,1.8,1,3.9,3.3,3.1c0.1-1.8,0.5-3.5,0.6-5.3
					c1.3,9,4.8,12.8,13,16.3c-2.3-0.3-4.7-0.6-7-0.8c-2.2-0.5-4.4-1-6.6-1.5c-1.1-1.6-2.2-3.1-3.2-4.7C134-3.1,133.4-4.6,132.8-6.1"
					/>
				<path class="st14" d="M148.8-5.9c1.8-8.4,4.3-16.4,5.4-24.8c0.7-5.5,0.8-8.2-2-12.9c-3,0.2-4.9-0.1-7.8-1.1
					c-11.7-3.8-18.4-9.5-26.2,1.9c2.5-1.2,5-2.4,7.5-3.5l5.4,1.1c3.2,1.8,6.3,3.7,9.5,5.5c2.5,0.5,4.9,1,7.4,1.5
					c0.8,3.3,1.6,6.7,2.4,10c-0.6,4.4-1.2,8.8-1.8,13.2c-0.1,2.1-0.1,4.2-0.2,6.3C148.5-7.9,148.6-6.9,148.8-5.9"/>
				<path class="st14" d="M168.9-57.5c-1-6.8,2.3-10.4,0.9-12.3c-0.4-0.5-0.9-1.5-1.5-1.7c-2.1-0.9-4.9,0.2-5.1-0.4h-6.8
					c-0.9,0.4-1.8,0.8-2.7,1.1c1.4,1.6,2.8,3.3,4.2,4.9c1.4,3,2.7,5.9,4.1,8.9c0.9,3,1.7,6,2.6,9h1.4
					C166.9-51.2,167.9-54.4,168.9-57.5"/>
				<path class="st14" d="M157.5-37.8c0.6-3.1,1.5-3.8,3-6.8c-1-4.9-2.5-10.7-4.4-14.9c-0.8-1.8-1.4-2.8-2.8-4.2
					c-2.3-2.4-4.7-4.4-7.4-6.5c-1.9-1.5-3.2-0.7-5.6-0.4c-1-1.8-1.3-2.8-3.1-3.8c-2.8-1.4-5.4,1.6-7.6,3.4c1.6-2.5,3.2-5,4.8-7.5
					c1.1-1,2.2-2.1,3.3-3.1c0.9-0.1,1.9-0.3,2.8-0.4c1.3,0.8,2.5,1.5,3.8,2.3c0.7,1.3,1.3,2.5,2,3.8c1.4,1,2.8,2.1,4.2,3.1
					c1.7,1.5,3.4,2.9,5.1,4.4c1.1,1.5,2.2,3.1,3.2,4.6c1,1.8,1.9,3.6,2.9,5.4c1.3,3.8,2.5,7.5,3.8,11.3c0.1,1.4,0.2,2.8,0.3,4.3
					c-1.6,0.7-3.1,1.4-4.7,2.1C159.9-39.8,158.6-38.9,157.5-37.8"/>
				<path class="st14" d="M120.1-59.5c5.3,0,10.8,0.3,15.6,2.5c1.4,2,2.7,3.7,4.4,5.5c-1.5-2.9-2-4.5-2.4-7.7
					c-0.5-0.8-1-1.5-1.6-2.3c-4-0.1-7.9-0.2-11.9-0.3c-1.3,0.1-2.6,0.3-3.9,0.4c-0.1,0.1-0.3,0.3-0.4,0.4
					C120.1-60.5,120.1-60,120.1-59.5"/>
				<path class="st14" d="M119.4-55.9c-0.1,1.2-0.3,2.5-0.4,3.7c-0.9-5.4-0.7-9-3.2-13.9c-1.9-2.2-4.1-4.1-6.8-5.2
					c0.2-1.3,0.3-2.2,0.2-3.1c-0.5-3.5-7.5-2-10.3-1.8c4.6-1.2,9.2-2.4,13.9-3.6c1,0.4,2.1,0.8,3.1,1.3c0.3,2,0.7,4,1,6
					c1,1.8,1.9,3.6,2.9,5.4c0.2,1.1,0.3,2.2,0.5,3.3C120-61.1,119.7-58.5,119.4-55.9"/>
				<path class="st14" d="M111.6-25.3c-0.1-2.6-0.3-3.7,0.8-6c1.5-3,3.3-5.7,4.9-8.6c0.2,1.9,0.3,3.9,0.5,5.8
					C115.8-31.2,113.7-28.3,111.6-25.3"/>
				<path class="st14" d="M90.2-45.2c-0.5-1-0.9-1.9-1.4-2.9c1.2-4.2,2.3-6.8,4.7-10.5c-0.4-1.5-0.7-2.1-1.7-3.3
					c-2.1,0.3-3.9,0.4-6,0.4c2.3-1.8,4.7-3.6,7-5.4c1.1,0.2,2.3,0.4,3.4,0.6c1.1,1.1,2.3,2.3,3.4,3.4c-1.6,2.5-3.3,5.1-4.9,7.6
					C93.3-51.9,91.7-48.6,90.2-45.2"/>
				<path class="st14" d="M211,6.2c1.4-6.4,3.2-12.3,3.1-18.8c-0.2-8-1.8-18.1-9.2-23c-8.3-5.4-18.1-2.9-27.2-0.5
					c3.7-1.5,7.4-3.1,11.1-4.6c3.5-0.2,6.9-0.3,10.4-0.5c2.4,0.7,4.7,1.4,7.1,2.1c1.8,1.5,3.7,3.1,5.5,4.6c1.4,2.9,2.8,5.8,4.2,8.8
					c0.5,3.4,1,6.7,1.6,10.1c-0.4,3.3-0.8,6.6-1.3,9.9c-0.8,3.3-1.5,6.5-2.3,9.8C213.1,4.8,212.1,5.5,211,6.2"/>
				<path class="st14" d="M87-12.8c-3.8-2.5-5.3-3.5-4.8-8.1c0.4-1.4,0.8-2.7,1.1-4.1c0.5-0.4,1.1-0.7,1.6-1.1
					c0.7-0.2,1.3-0.4,2-0.7c1.2,0.3,2.4,0.6,3.6,0.8c0.6,1.9,1.2,3.8,1.8,5.7c-1.7-0.8-3.4-1.7-5.1-2.5H86c-0.4,0.7-0.9,1.3-1.3,2
					c0.5,0.8,1.1,1.6,1.6,2.4c0.3,1.5,0.6,3,0.8,4.5c0.4-0.1,0.7-0.2,1.1-0.3c0.4-0.3,0.9-0.7,1.3-1c-0.1,0.8-0.1,1.6-0.2,2.4
					c-0.3,0.5-0.6,1-0.9,1.5c-0.3,0.3-0.6,0.5-0.9,0.8C87.4-11.3,87.2-12.1,87-12.8"/>
				<path class="st14" d="M171.7,23.1c3.3-3.1,7.5-5.8,10.1-9.6c1-1.5,2.2-2.2,0-4.3c2.3,0.7,3.2,0.6,5.1,0.4
					c3.4-0.4,6.6-5.2,6.8-8.7c0-0.3-0.9-1.1-3.6-1.8c-0.1-0.1-1.5,0.2-1.4,0.1c0.3-0.7,0.6-0.9,1.2-1.2c0.1-0.8,0.2-2.1,0.8-3
					c1.7,0,3.3-0.2,4.9-0.5c0.5-0.9,0.5-1.8,0.4-2.7c0.6,0.1,1.3,0.2,1.9,0.3c-0.2,1.4-0.3,2.8-0.5,4.3c0.6,0.9,1.1,1.9,1.7,2.8
					c-0.8,1.8-1.6,3.6-2.4,5.4c-1.5,1.5-3.1,2.9-4.6,4.4c-0.1,0-0.3,0-0.4,0c-1.7,1.1-3.4,2.1-5.2,3.2c-2.8,2.3-5.6,4.6-8.4,6.9
					C175.8,20.3,173.7,21.7,171.7,23.1"/>
				<path class="st14" d="M177.3-2.6c-0.2-0.3-0.4-0.8-0.8-1.1c1.4-1.3,2.1-2.2,2.6-4.1c-1.6-0.8-3.2-1.6-4.7-2.3
					c-1.3-1.3-2.7-2.6-4-3.8c-1.8,0.9-2.2,1.7-3,3.5c-1-0.3-1.9-0.5-2.7-0.2c0.5,0,0.8,0.1,1.4,0.4c0.8,0.9,1.7,1.8,2.5,2.6
					c1.5,1.1,3,2.3,4.5,3.4c1,0.3,2,0.6,2.9,1C176.3-3.1,176.9-2.8,177.3-2.6"/>
				<path class="st14" d="M181.7-7.3c-5-2.7-9.8-5.4-12.4-10.5C169.3-11.3,175.8-8.5,181.7-7.3"/>
				<path class="st14" d="M168.3,5.5c-3.7-2.5-6.4-7.7-6-12.7c-1.2,4.3-0.8,8.4,2.9,11.4c0.6,0.3,1.3,0.6,1.9,0.9
					C167.5,5.3,167.9,5.4,168.3,5.5"/>
			</g>
			<path class="st10" d="M175.4-33.1c0.8,0.4,2.2,1,2.9,1.4c-0.8-0.1-2.2-0.4-3-0.6c-2.1-0.4-2.4-0.9-2.7-2.9
				c-0.2-1-0.4-2.2-0.5-3.2c0.4,1.1,0.9,2.4,1.4,3.5C174-33.8,174.3-33.6,175.4-33.1L175.4-33.1z M136.1,20.6
				c1.7,2.5,2.6,3.3,5.2,4.9C137.8,24.6,137.2,24,136.1,20.6z M135.6,15.1c2.9,5.8,5.1,8,11.2,10.9
				C139.9,24.3,137.9,23.1,135.6,15.1z M73.3-15.3c0.6,2.9,1.2,4,3,6.4C73.4-11,73-11.8,73.3-15.3z M138.5-64.4
				c-0.1,0.7-0.2,1.4-0.3,2.1c-0.2,1.3-0.2,2.3-0.1,3.6c0.1,1.3,0.2,2.5,0.3,3.8c-0.4-1.3-1.1-2.6-1.5-3.8c-0.1-0.5-0.3-0.9-0.3-1.3
				c-5.5-1.1-10.9-1.2-16.3-0.2c-0.3,2-0.8,4.1-1.1,5.6c-0.1-1.7,0-6.4,0-9c0-2-0.1-2.7-1.1-4.4c-1-1.6-1.4-2-2.8-4.7
				c0.1-1.7,0.1-2.9-0.3-4.5c-0.8-2.7-8.4-0.6-10.4-0.1c-2.5,0.7-7.6,1.7-6.3,5c1.1,2.9,1.9,6,2.4,10.1C96-55.5,91.8-46.5,91-38.5
				c-0.6,6.2-0.3,10,1.1,13.8c2.1,6,5.1,11.2,9.9,15.4c6.4,5.6,12.4,7.9,21.9,9.3c-2.3-2.5-4.5-5.2-6.9-8.1c-2.5-2.9-3.9-5.8-5.5-9
				c-2.2-4.4-2.1-6.1,0.8-9.9c2.5-3.3,3.8-4.8,4.9-8.1c-0.9-1.8-1.2-3.4-1.5-5.9c3-3.3,5.3-5.6,8.2-6.3c2.9-0.7,5.3-0.6,7.9,0.8
				c5.7,2.9,11.1,6.7,17.5,6.9c3,7.4,2.7,13.5,1.3,20.6c-1,4.9-1.4,9.5-1.7,14.4c-1.2-5.1-1.4-9.6-0.5-14.7
				c1.1-6.1,1.9-12.9-1.1-18.3c-5.9-0.4-10.9-4-16.1-6.7c-2.1-1.1-4.3-1.2-6.7-0.6c-2.2,0.6-3.6,2-6,4.7c0,2.7,0.6,4,1.8,6.4
				c2,4,4.2,7.6,6.6,11.5c-3-3.6-5.8-6.6-8.1-10.2c-0.9,2.5-2.2,3.8-4.3,6.7c-2.1,2.8-2.3,4-0.7,7.3c1.6,3.3,2.9,6.1,5.5,9
				c4.6,4.9,8.8,10.4,13.8,15.3c2.7,2.6,3.8,2.6,7.4,3.1c3.3,0.5,6.4,1.1,9.8,1.9c-3.2-0.3-6.3-0.4-9.4-0.5c0,0-0.1,0-0.1,0
				c3.1,3.9,4.9,6.1,9.9,8.3c12.3,5.3,20.1,5.9,29.8-2.2c2.5-2.1,4.7-4.2,7.2-6c-0.9-0.1-1.7-0.2-2.8-0.7c1.3,0.2,2.8,0,4.1-0.2
				c0.4-0.2,0.8-0.5,1.1-0.7c1.8-1.1,2.8-1.6,4-3.3c1.3-1.8,2.4-3.6,3.3-5.5c-0.6,0.2-1.1,0.4-1.6,0.5c-0.3,0.2-0.7,0.3-1.1,0.3
				c-0.8,0.1-1.5-0.1-2.1-0.5c0,0,0,0-0.1,0c-1-0.5-2.5-1-3.6-1.2c0.5-0.2,1.7-0.2,2.2,0c0.1,0,0.1,0.1,0.2,0.1
				c-0.2-0.4-0.4-0.9-0.5-1.4c-0.1-0.7,0.1-1.3,0.4-1.9l0,0c0.1-0.2,0.2-0.4,0.4-0.6c-0.5-0.2-1-0.4-1.4-0.6
				c2.3,0.3,4.4,0.4,6.6,0.1c0.1-0.7,0.3-1.5,0.4-2.2c-0.3,0-0.6,0-0.8-0.1c0,0,0,0-0.1,0c-1.1,0.8-2.2,0.7-3.9,0.3
				c-4.9-1.1-3.8-3.9-6-8c2.3,2.9,2.2,5.9,6,6.8c0.9,0.2,1.5,0.5,2.1,0.4c-1.1-0.5-2-1.4-2.4-2.5c-1-3-0.4-5.5-1.5-8.2
				c1.4,2.5,1.5,4.9,2.8,7.5c0.5,0.9,2.2,2.4,3.2,2.5c0.3,0,0.6,0,0.9,0c0.3-1.6,0.4-3.3,0.3-4.6c-0.2-2.5-0.8-6.1-1.2-7.5
				c1.3,1.7,1.9,5.2,2.4,7.7c0.6,2.6,0.4,5.7-0.1,8.4c-0.7,3.8,3.2,3.2,5.5,5c1.7,1.3,2.8,3.4,4.3,4.9c1.5,1.5,3.9-0.7,4.5-2.1
				c2.6-6.3,3.8-16.1,3.1-22.4c-0.8-7.1-4.2-14.8-10.4-18.3c-8-4.4-17.4-1.7-25.3,0.9c-1.7,0.6-2.9,1.4-4.4,2.3
				c0.4-1.8,0.6-3.7,0.1-5.6c-0.9-2.9-2.2-7.6,1.7-8.5c1.5-0.3,2.2-0.3,4.3,0.8c-1.7-0.4-2.6-0.3-3.7-0.1c-1.1,0.2-1.6,0.9-1.9,1.7
				c0.4-0.3,1-0.4,2-0.7c2.9-0.7,5.7,0.7,6.2,2.7c0.3,1.2,0.3,1.8,0.9,3.4c0.6-0.2,1.2-0.4,1.9-0.5c-0.4-1.2-0.7-2.3-1.1-3.5
				c-0.9-3-4.6-5.5-7.8-5.4c-3,0.1-4.9,1.9-6.9,3.7c-1.4,1.3-2.8,2.5-4.1,3.6c-3.7,1.2-6.7,2.5-10.1,5.1c2.4-2.9,4.1-4.5,7.5-5.9
				c-0.5-5-2.2-8.7-3.7-13.6c-0.7-2.2-6-10.9-7.5-11.8c-1.1-0.6-7.7-6.2-8.9-6.9c-0.9-1.2-1.7-2.9-3.1-3.7c-4.2-2.2-7,2.1-9.3,5.7
				c-1,1.7-3.9,6.4-1.4,7.8c2.4,1.3,3.7,2.2,6.1,3.8C137.5-63.1,138.1-63.7,138.5-64.4L138.5-64.4z M153.3-72.1
				c-2.1-1.7-5.8-4.8-6.5-5.2c-1.3-1.9-1.4-3.1-3.5-4.2c-6.1-3.3-9.3,0.5-12.9,6c-1.7,2.6-5.4,8.6-1.5,10.7c1.7,0.9,2.9,1.5,4.2,2.2
				C129-63,125-63,120.7-62.3c0.1-0.5,0.1-1,0.2-1.4c0.3-2.3,0.4-3-0.9-4.9c-0.9-1.4-1.3-1.8-2.4-4.2c0.2-2,0.1-3.1-0.5-5.3
				c-1.3-4.7-10-2.1-13.6-1.2c-4.3,1.2-10.4,2.2-7.9,7.8c0.6,1.3,1.1,2.6,1.4,3.9c-3.7-1.7-9,1.9-11.4,4.3c-2.4,2.4-3.6,5.1-4.1,7.8
				c-0.4,2.3,0,2.3,1.6,3.9c1.5,1.5,3,2.9,4.4,4.4c0.6,1.6,1.2,3.3,1.8,4.9c-0.2,1.2-0.4,2.4-0.5,3.6c-0.4,5-0.3,8.6,0.4,11.8
				c-2.6-1-5.6-0.5-6.9,2.2c-0.5,1.1-0.8,2.1-1.2,3.7c-5.8,5.6,5.1,13,8.3,13.5c-0.4-1-0.8-2-1.1-2.9c2.2-1.1,1.9-4.3,1.4-6.3
				c-0.8,1-1.2,2.3-2.3,2.3c-0.2-2.3-0.1-4.9-1.9-6.2c0.5-1.4,0.5-1.4,2-0.8c2.2,0.8,3.8,2.7,5.4,4.5c1.8,3.4,4,6.5,7.1,9.3
				C107.7-1,115,1.2,126.6,3c1.5,1.6,3.1,3.2,4.9,4.7c2.3,2.1,3.8,2.5,6,2.6c3.6,4.9,6.5,8.3,12.4,10.8c12.4,5.2,21,5.5,31-2.7
				c3.3-2.7,6.1-5.6,9.7-7.9c1.8-1.1,3.1-2,4.5-3.6c1.8-2.1,3.2-4.2,4.2-6.9c1.3,0.5,2.8,1,3.9,2c1.5,1.3,2.5,3.5,3.9,4.9
				c1.9,1.9,6.2-0.4,7.1-2.2c3.2-6.2,4.5-17.6,3.9-24.3c-0.8-8.4-4.3-16.3-11.7-20.2c-5-2.7-11.7-2.9-17.5-1.8
				c-0.4-1.2-0.7-2.5-1.1-3.7c-1.1-3.7-5.5-6.7-9.3-6.9c-3.7-0.2-5.7,1.7-8.1,4c-1.3,1.2-2.5,2.4-3.8,3.6c-0.1-0.8-0.2-1.6-0.3-2.4
				c1-2,1.5-3.7,2.3-5.7c0.9-2.2,1.4-3.7,1.5-6.1c0.1-2.1,0.1-4.2,0.2-6.3c0.9-1.7,1-2.1,0.9-4c-0.3-4-2.5-4.4-6.2-4.4
				c-1.2,0-5.9,0-7.1,0.1C155.6-73.2,154.1-73,153.3-72.1L153.3-72.1z M165.8-50c-0.7-2.7-1.8-5.2-2.7-8.1
				c-0.9-2.7-5.3-10.7-7.9-12.6c0.5-0.4,1.4-0.5,3.1-0.7c1.2-0.1,5.8-0.1,7-0.1c2.6,0,3.5,0.1,3.8,3.1c0.1,1.4,0,1.7-0.7,3
				c-0.1,2.2-0.1,4.5-0.2,6.7c-0.1,2.1-0.5,3.3-1.3,5.3C166.4-52.2,166.1-51.1,165.8-50L165.8-50z M87.6-13.4
				c0.6,0.1,0.9-0.2,1.4-0.7c-0.1,1.1-0.3,1.9-1,2.3c-0.1-0.2-0.1-0.3-0.1-0.5C87.7-12.6,87.6-13,87.6-13.4L87.6-13.4z M91.2-21.1
				c-0.4-1.1-0.8-2.2-1.2-3.3c-0.1-0.2-0.1-0.4-0.2-0.6c-2.2-0.9-5.1-1.5-6.2,0.8c-0.5,1.1-0.8,2.2-1.2,3.6
				c-3.6,3.7,1.8,8.7,4.7,10.5c-0.4-0.9-0.7-1.6-0.9-2.3c-0.9-3.1,0.4-5.8-2.4-8.1c1.3-2.7,1.3-3.7,4.3-2.5
				C89.3-22.5,90.3-21.9,91.2-21.1L91.2-21.1z M90.3-46.2C92-52,94.8-57.6,98-62.4c0,0,0-0.1,0-0.1c-0.2-0.8-0.4-1.6-0.9-2.3
				c-2.2-3-7.9,1.4-9.6,3.1c-1.8,1.8-3,4-3.3,6.1c-0.2,1.5,0,1.5,1,2.6c1.4,1.4,2.8,2.8,4.2,4.3C89.7-47.9,90-47.1,90.3-46.2
				L90.3-46.2z M196.5-0.1c0.3-0.3,0.6-0.7,0.8-1.1c0.1,0.1,0.2,0.2,0.3,0.3c-0.1,0.3-0.3,0.6-0.4,0.9C197-0.1,196.8-0.1,196.5-0.1z
				 M169.1-10.4c-0.3,0.6-0.4,1.3-0.4,1.9c-1.1-0.9-2.2-1.7-3.5-2.1c1.7,1.5,4,5,5.6,6.1c1.9,1.3,4.4,1,6.6,2
				c-0.7-0.7-1.7-1.2-2.7-1.7c1.1-0.4,2-1.2,2.5-2.3c0.2-0.5,0.4-1,0.4-1.4c1.5,0.5,2.9,0.7,4.1,0.7c-4.4-1.2-9-4.1-12.2-7.9
				c0.4,1,0.9,1.9,1.5,2.7C170.2-12.1,169.5-11.4,169.1-10.4L169.1-10.4z M148.9,5.3c-2.4-0.9-4.6-1.6-6.9-2.2
				c-2.1-2.8-3.4-4.3-3.9-8c-0.6,3.7-0.7,4.4,0.9,7.2c-0.5-0.2-0.9-0.6-1.6-1.1c-2.3-2-5.3-9.7-6.5-12.5c0.8,3.3,3.1,11.7,5.6,14.1
				c1.6,1.6,2,1.6,4.3,1.8C143.5,4.7,146.2,5,148.9,5.3L148.9,5.3z M199.1-2.8c1.9-0.2,3.1-0.5,4.8,0.4c3.3,1.6,5.6,4.2,7.2,7.4
				c-0.9-3.8-2.9-6.9-6.8-8.4C202.3-4.1,201-3.3,199.1-2.8L199.1-2.8z M161.6-3.1c0.7,3.3,2,6.4,7.1,8.8C162,4,160.8,1.2,161.6-3.1z
				 M74.8-20.7c0.6,6.5,1.8,9.3,6.5,14.2C75.5-10.5,74-12.4,74.8-20.7"/>
			<path class="st14" d="M169.9-11.5c-0.4,0.9,0,2.1,0.9,2.5c0.9,0.4,2.1,0,2.5-0.9c0-0.1,0.1-0.2,0.1-0.3c-0.9-0.7-1.7-1.4-2.4-2.4
				C170.6-12.3,170.2-12,169.9-11.5"/>
			<path class="st14" d="M190.9-3.4c0.1,0.8,0.7,1.3,1.5,1.3c0.8-0.1,1.3-0.8,1.3-1.5c0-0.2-0.1-0.3-0.1-0.5
				c-0.7-0.1-1.4-0.3-2.2-0.6C191.1-4.4,190.9-3.8,190.9-3.4"/>
		</g>
	</g>
</g>
</svg>
